<svg height="512pt" viewBox="0 0 512 512" width="512pt" xmlns="http://www.w3.org/2000/svg"><path d="m496 80h-32v16h32v216h-480v-216h32v-16h-32c-8.824219 0-16 7.175781-16 16v280c0 8.824219 7.175781 16 16 16h190.414062l-13.085937 72h-25.328125c-2.128906 0-4.160156.839844-5.65625 2.34375l-16 16c-1.503906 1.496094-2.34375 3.535156-2.34375 5.65625v16c0 4.414062 3.574219 8 8 8h208c4.425781 0 8-3.585938 8-8v-16c0-2.121094-.839844-4.160156-2.34375-5.65625l-16-16c-1.496094-1.503906-3.527344-2.34375-5.65625-2.34375h-25.328125l-13.085937-72h190.414062c8.824219 0 16-7.175781 16-16v-280c0-8.824219-7.175781-16-16-16zm-144 411.3125v4.6875h-192v-4.6875l11.3125-11.3125h169.375zm-49.585938-27.3125h-92.828124l13.09375-72h25.328124l-.007812 32h-8v16h32v-16h-8l.007812-32h25.3125zm193.585938-88h-480v-48h480zm0 0"/><path d="m232 344h48v16h-48zm0 0"/><path d="m240 192h32c8.824219 0 16-7.175781 16-16v-64c0-8.824219-7.175781-16-16-16h-32c-8.824219 0-16 7.175781-16 16v64c0 8.824219 7.175781 16 16 16zm0-80h32l.007812 64h-32.007812zm0 0"/><path d="m200 192v-24h8v-16h-8v-48c0-4.414062-3.574219-8-8-8h-16c-2.671875 0-5.167969 1.335938-6.65625 3.558594l-32 48c-.871094 1.3125-1.34375 2.867187-1.34375 4.441406v8c0 4.414062 3.574219 8 8 8h40v24zm-46.382812-40 26.664062-40h3.71875v40zm0 0"/><path d="m368 104c0-4.414062-3.574219-8-8-8h-16c-2.671875 0-5.167969 1.335938-6.65625 3.558594l-32 48c-.871094 1.3125-1.34375 2.867187-1.34375 4.441406v8c0 4.414062 3.574219 8 8 8h40v24h16v-24h8v-16h-8zm-16 48h-30.382812l26.664062-40h3.71875zm0 0"/><path d="m72 296h368c4.425781 0 8-3.585938 8-8v-280c0-4.414062-3.574219-8-8-8h-368c-4.425781 0-8 3.585938-8 8v280c0 4.414062 3.574219 8 8 8zm8-16v-216h352v216zm0-264h352v32h-352zm0 0"/><path d="m112 24h16v16h-16zm0 0"/><path d="m144 24h16v16h-16zm0 0"/><path d="m176 24h16v16h-16zm0 0"/><path d="m352 24h48v16h-48zm0 0"/><path d="m288 208h-64c-13.230469 0-24 10.769531-24 24s10.769531 24 24 24h64c13.230469 0 24-10.769531 24-24s-10.769531-24-24-24zm0 32h-64c-4.414062 0-8-3.59375-8-8s3.585938-8 8-8h64c4.414062 0 8 3.59375 8 8s-3.585938 8-8 8zm0 0"/></svg>